<svg width="26" height="24" viewBox="0 0 26 24" fill="none" xmlns="http://www.w3.org/2000/svg">
<path d="M13 17V9.5M13 9.5L9.25 12M13 9.5L16.75 12M1.75 4.5V18C1.75 19.4 1.75 20.1 2.0225 20.635C2.26218 21.1054 2.64462 21.4878 3.115 21.7275C3.64875 22 4.34875 22 5.74625 22H20.2537C21.6512 22 22.35 22 22.8837 21.7275C23.355 21.4875 23.7375 21.105 23.9775 20.635C24.25 20.1 24.25 19.4 24.25 18V8.5C24.25 7.1 24.25 6.4 23.9775 5.865C23.7378 5.39462 23.3554 5.01218 22.885 4.7725C22.35 4.5 21.65 4.5 20.25 4.5H13M1.75 4.5H13M1.75 4.5C1.75 3.83696 2.01339 3.20107 2.48223 2.73223C2.95107 2.26339 3.58696 2 4.25 2H8.84375C9.455 2 9.76125 2 10.0487 2.06875C10.3054 2.13125 10.5463 2.23125 10.7713 2.36875C11.0238 2.52375 11.24 2.74 11.6713 3.1725L13 4.5" stroke="#04245C" stroke-width="2.5" stroke-linecap="round" stroke-linejoin="round"/>
</svg>
