<svg width="24" height="27" viewBox="0 0 24 27" fill="none" xmlns="http://www.w3.org/2000/svg">
<path d="M16.2857 6.75C16.2857 5.63112 15.8342 4.55806 15.0305 3.76689C14.2267 2.97572 13.1366 2.53125 12 2.53125C10.8634 2.53125 9.77327 2.97572 8.96954 3.76689C8.16582 4.55806 7.71429 5.63112 7.71429 6.75C7.71429 7.86888 8.16582 8.94194 8.96954 9.73311C9.77327 10.5243 10.8634 10.9688 12 10.9688C13.1366 10.9688 14.2267 10.5243 15.0305 9.73311C15.8342 8.94194 16.2857 7.86888 16.2857 6.75ZM5.14286 6.75C5.14286 4.95979 5.8653 3.2429 7.15127 1.97703C8.43723 0.711159 10.1814 0 12 0C13.8186 0 15.5628 0.711159 16.8487 1.97703C18.1347 3.2429 18.8571 4.95979 18.8571 6.75C18.8571 8.54021 18.1347 10.2571 16.8487 11.523C15.5628 12.7888 13.8186 13.5 12 13.5C10.1814 13.5 8.43723 12.7888 7.15127 11.523C5.8653 10.2571 5.14286 8.54021 5.14286 6.75ZM2.64107 24.4688H21.3589C20.8821 21.1307 17.9679 18.5625 14.4482 18.5625H9.55179C6.03214 18.5625 3.11786 21.1307 2.64107 24.4688ZM0 25.4338C0 20.2395 4.275 16.0312 9.55179 16.0312H14.4482C19.725 16.0312 24 20.2395 24 25.4338C24 26.2986 23.2875 27 22.4089 27H1.59107C0.7125 27 0 26.2986 0 25.4338Z" fill="#E3F0FA"/>
</svg>
