<svg width="28" height="23" viewBox="0 0 28 23" fill="none" xmlns="http://www.w3.org/2000/svg">
<mask id="mask0_314_2326" style="mask-type:alpha" maskUnits="userSpaceOnUse" x="0" y="0" width="28" height="23">
<path d="M8.4 18.4796C6.86 18.4796 5.614 19.4967 5.614 20.7398C5.614 21.9829 6.86 23 8.4 23C9.94 23 11.2 21.9829 11.2 20.7398C11.2 19.4967 9.94 18.4796 8.4 18.4796ZM22.4 18.4796C20.86 18.4796 19.614 19.4967 19.614 20.7398C19.614 21.9829 20.86 23 22.4 23C23.94 23 25.2 21.9829 25.2 20.7398C25.2 19.4967 23.94 18.4796 22.4 18.4796ZM9.94 12.8291H20.37C21.42 12.8291 22.344 12.3657 22.82 11.6651L28 3.74305L25.55 2.65815L20.37 10.5689H10.542L4.578 0.397949H0V2.65815H2.8L7.84 11.2356L5.95 13.9931C4.928 15.5074 6.272 17.3495 8.4 17.3495H25.2V15.0893H8.4L9.94 12.8291ZM15.4 0.397949L21 4.91835L15.4 9.43876L13.426 7.84532L15.638 6.04845H9.8V3.78825H15.638L13.412 1.99139L15.4 0.397949Z" fill="#E3F0FA"/>
</mask>
<g mask="url(#mask0_314_2326)">
<path d="M-1.05025 -0.449667L4.19858 -0.449648L11.7705 10.5046L17.3236 9.72126L21.5236 5.90717L24.6736 2.51687L28.4564 0.821719L26.7747 18.6208L25.1998 24.5539L23.6248 24.5539L22.5748 24.13L21.5234 24.13L11.7705 24.13L5.77475 22.4349L-1.05025 -0.449667Z" fill="#E3F0FA"/>
</g>
</svg>
