<svg width="337" height="337" viewBox="0 0 337 337" fill="none" xmlns="http://www.w3.org/2000/svg">
<path fill-rule="evenodd" clip-rule="evenodd" d="M49.7388 287.386C60.9226 298.899 71.1244 306.214 84.3755 313.827C142.872 313.46 220.677 289.247 256.419 254.986C229.937 293.173 159.644 319.64 107.741 324.935C167.746 347.959 238.383 335.369 286.874 286.878C332.473 241.28 348.42 172.944 326.235 111.214C322.018 147.969 303.821 179.513 278.677 204.89C220.48 263.622 130.055 287.052 49.7388 287.386ZM41.0343 278.078C67.5158 278.745 95.3019 276.696 118.604 273.146C78.3358 255.367 33.9169 214.858 30.082 157.914C38.4957 195.528 70.7666 249.749 140.819 268.892C158.479 264.948 175.026 259.847 190.371 253.766C81.6712 253.115 22.5086 154.06 46.0514 52.5002C-13.3621 115.206 -15.5545 212.804 41.0343 278.078ZM199.918 29.5291C150.898 -5.54063 97.7176 5.28704 55.688 43.1087C52.8521 52.8145 50.7495 62.742 49.4403 72.7611C72.3873 41.3757 108.359 23.6763 137.991 21.5391C105.253 29.2494 71.3301 50.3941 48.0829 87.7838C46.9476 110.458 49.9756 133.269 57.8487 154.743C56.3685 78.3253 122.43 17.6137 199.918 29.5291Z" fill="#0693C9"/>
<path fill-rule="evenodd" clip-rule="evenodd" d="M311.391 145.445C292.549 183.582 254.7 222.476 207.346 246.12C192.013 247.479 177.57 246.863 164.116 244.534C203.034 227.163 244.619 203.921 275.216 173.802C276.26 172.772 274.809 171.127 273.658 172.036C241.773 197.229 196.914 222.14 157.645 243.264C150.209 241.633 143.094 239.463 136.321 236.803C178.631 199.338 233.206 165.845 308.568 142.151C310.539 141.531 312.307 143.591 311.391 145.445ZM106.067 62.0679C89.3338 76.1276 76.0569 95.1092 69.4144 118.156C64.6181 134.797 63.2736 153.585 66.5726 174.211C68.7539 178.277 71.1161 182.219 73.6541 186.027C87.4511 206.732 106.652 223.64 130.099 234.177C136.937 228.052 143.911 222.192 151.023 216.581C146.635 213.69 141.383 210.378 138.424 209.043C132.697 206.46 129.17 202.541 128.957 197.203C128.524 186.351 144.485 165.803 155.993 154.58C151.751 164.967 156.029 175.757 164.963 182.529C165.388 182.851 165.812 183.173 166.235 183.498C160.27 188.257 153.735 191.687 147.458 195.629C154.299 198.837 159.011 202.433 162.929 207.515C169.635 202.588 176.458 197.873 183.403 193.356C178.605 189.458 171.369 183.624 166.772 180.141C158.292 173.715 154.553 163.495 159.64 153.842C163.187 147.109 170.649 139.418 181.938 136.423C176.197 136.146 167.894 138.483 163.854 141.808C161.544 126.886 150.696 120.668 146.474 108.551C146.474 108.551 140.554 115.776 137.938 118.087C135.322 120.398 129.32 127.04 125.718 129.836C122.115 132.633 109.58 138.633 98.2529 141.815C98.2529 141.815 97.7381 146.008 95.5927 147.383C91.5668 149.963 89.3844 154.783 89.1981 150.119C89.1505 148.933 91.0926 146.349 91.3189 145.416C91.5457 144.484 87.5627 145.501 85.3256 147.304C83.0891 149.108 80.859 153.974 78.4104 153.81C75.9611 153.646 78.7107 146.034 81.1529 143.843C83.595 141.652 90.5914 139.89 92.215 139.04C93.838 138.19 102.978 129.22 106.847 126.412C110.715 123.604 118.309 121.045 118.309 121.045C118.309 121.045 121.472 112.033 125.929 108.047C130.384 104.062 131.719 94.5251 138.493 90.7931C142.016 88.8521 146.009 87.2708 148.883 84.6811C154.679 79.4565 151.787 74.9077 149.81 69.0972C139.648 39.2262 170.078 41.2212 172.687 55.6986C173.279 58.9894 172.664 61.4827 172.379 63.5153C172.024 66.0286 173.368 70.4934 171.045 75.3554C171.045 75.3554 173.763 78.102 177.793 78.4711C177.793 78.4711 186.1 75.7016 190.615 77.5256C195.132 79.349 199.475 85.7841 201.849 90.4135C201.849 90.4135 206.659 95.4489 209.984 98.4229C213.308 101.397 221.432 105.052 225.618 110.676C229.806 116.301 234.427 121.699 240.023 123.321C258.437 128.653 252.769 136.794 246.304 133.619C242.037 131.523 237.985 130.465 236.227 130.1C234.471 129.734 235.4 131.178 236.523 133.138C237.647 135.097 235.135 135.459 233.601 134.125C232.066 132.793 230.427 128.85 229.363 126.19C228.298 123.531 218.762 118.819 214.074 117.089C209.385 115.359 206.989 110.179 205.601 108.03C205.601 108.03 195.524 103.622 192.491 100.435C192.491 100.435 192.669 109.143 193.149 113.635C193.629 118.127 195.045 122.922 198.973 129.627C210.525 149.353 199.37 164.163 178.757 167.227C178.757 167.227 187.167 169.968 192.174 176.782C194.411 179.826 195.975 182.654 197.019 184.849C230.809 164.568 267.333 148.698 306.731 136.31C309.229 135.525 311.881 135.937 313.982 137.343C317.212 127.149 319.108 116.786 319.598 106.395C319.772 102.712 319.768 99.024 319.585 95.3384C311.319 78.1437 300.213 62.5733 286.874 49.2347C250.151 12.5114 197.702 -6.01662 143.857 1.74597C168.472 4.92681 191.369 14.427 210.525 31.8015L221.583 41.8311L207.25 37.7001C172.86 27.788 133.719 38.8331 106.067 62.0679Z" fill="#E3F0FA"/>
<path fill-rule="evenodd" clip-rule="evenodd" d="M278.677 204.89C220.48 263.622 130.056 287.052 49.739 287.386C60.9227 298.899 71.1246 306.213 84.3756 313.827C142.872 313.46 220.678 289.247 256.42 254.986C292.498 220.786 327.759 167.634 326.235 111.214C322.018 147.969 303.821 179.513 278.677 204.89ZM301.503 162.852C298.681 154.93 286.371 158.753 262.44 168.682C235.59 179.821 182.953 213.772 148.869 241.048C151.742 241.87 154.669 242.611 157.645 243.264C196.914 222.14 241.773 197.229 273.658 172.036C274.809 171.127 276.26 172.772 275.217 173.802C244.619 203.921 203.035 227.163 164.116 244.533C177.57 246.863 192.013 247.479 207.347 246.12C247.493 226.075 280.81 195.067 301.503 162.852ZM57.8488 154.743C56.3686 78.3253 122.43 17.6137 199.918 29.5291C180.063 19.0628 151.324 19.6123 137.991 21.5391C105.254 29.2494 71.3302 50.3941 48.083 87.7838C46.9477 110.458 49.9758 133.269 57.8488 154.743ZM46.0516 52.5001C24.2217 94.5697 25.4399 132.305 30.0822 157.914C38.4958 195.527 70.7667 249.749 140.819 268.892C158.479 264.948 175.026 259.847 190.371 253.766C81.6714 253.115 22.5088 154.06 46.0516 52.5001Z" fill="#A8DEF2"/>
</svg>
